<?xml version="1.0" encoding="iso-8859-1"?>
<!-- Generator: Adobe Illustrator 16.0.0, SVG Export Plug-In . SVG Version: 6.00 Build 0)  -->
<!DOCTYPE svg PUBLIC "-//W3C//DTD SVG 1.1//EN" "http://www.w3.org/Graphics/SVG/1.1/DTD/svg11.dtd">
<svg xmlns="http://www.w3.org/2000/svg" xmlns:xlink="http://www.w3.org/1999/xlink" version="1.1" id="Capa_1" x="0px" y="0px" width="512px" height="512px" viewBox="0 0 753.23 753.23" style="enable-background:new 0 0 753.23 753.23;" xml:space="preserve">
<g>
	<g id="Flag">
		<g>
			<path d="M665.644,45.406c-10.475-6.426-23.632-6.874-34.577-1.201c-27.917,14.453-55.387,26.41-108.419,26.41     c-58.352,0-85.821-14.476-117.668-31.235C369.907,20.926,330.174,0,254.427,0c-52.42,0-87.445,10.027-115.739,22.267     C133.486,9.25,120.823,0,105.923,0c-19.49,0-35.308,15.794-35.308,35.308v682.615c0,19.514,15.818,35.308,35.308,35.308     s35.308-15.794,35.308-35.308V429.012c29.988-15.724,57.646-28.858,113.197-28.858c58.328,0,85.821,14.477,117.645,31.236     c35.072,18.454,74.781,39.38,150.575,39.38c68.804,0,107.336-16.948,140.878-34.296c11.746-6.073,19.09-18.172,19.09-31.377     V75.559C682.615,63.248,676.189,51.808,665.644,45.406z M612,383.018c-22.503,9.957-48.23,17.136-89.353,17.136     c-58.352,0-85.821-14.476-117.668-31.235c-35.073-18.454-74.806-39.38-150.552-39.38c-50.82,0-85.327,9.392-113.197,21.138     V99.474c29.988-15.724,57.646-28.858,113.197-28.858c58.328,0,85.821,14.476,117.645,31.235     c35.072,18.454,74.781,39.38,150.575,39.38c37.355,0,65.79-4.99,89.353-12.334V383.018z" fill="#FFFFFF"/>
		</g>
	</g>
</g>
<g>
</g>
<g>
</g>
<g>
</g>
<g>
</g>
<g>
</g>
<g>
</g>
<g>
</g>
<g>
</g>
<g>
</g>
<g>
</g>
<g>
</g>
<g>
</g>
<g>
</g>
<g>
</g>
<g>
</g>
</svg>
